# xmcd
#
# Track frame offsets:
#	150
#	16921
#	40126
#	60271
#	79417
#	95596
#	110276
#	124692
#
# Disc length: 1830 seconds
#
# Revision: 0
# Processed by: cddbd v1.4PL0 Copyright (c) Steve Scherf et al.
# Submitted via: dBpowerAMP V4.0
#
DISCID=5a072408
DTITLE=Various Artist - Rise Over Run - Society's Finest
DYEAR=1900
DGENRE=
TTITLE0=Rise Over Run - Without Grace
TTITLE1=Rise Over Run - As You Wave Their Flag
TTITLE2=Rise Over Run - Sheltered Lies
TTITLE3=Rise Over Run - Born Into The Deathbed
TTITLE4=Society's Finest - The Art...The Morgue
TTITLE5=Society's Finest - The Cutting Table
TTITLE6=Society's Finest - Forget, If Only I Could Forget
TTITLE7=Society's Finest - Untitled
EXTD=
EXTT0=
EXTT1=
EXTT2=
EXTT3=
EXTT4=
EXTT5=
EXTT6=
EXTT7=
PLAYORDER=
